<?xml version="1.0" encoding="UTF-8"?>
<svg width="400" height="200" version="1.1" viewBox="0 0 400 200" xmlns="http://www.w3.org/2000/svg">
 <rect width="400" height="200" fill="#1f2937"/>
 <g fill="#4b5563">
  <path d="m181.07 91.071v-2.6786h2.6786v2.6786zm2.6786 0h2.6786v2.6786h-2.6786zm2.6786-2.6786h2.6786v2.6786h-2.6786zm2.6786-2.6786h2.6786v2.6786h-2.6786zm2.6786 0v-2.6786h2.6786v2.6786z"/>
  <path d="m183.75 96.429h2.6786v2.6786h-2.6786zm2.6786-2.6786h2.6786v2.6786h-2.6786zm2.6786-2.6786h2.6786v2.6786h-2.6786z"/>
  <path d="m191.79 91.071h2.6786v2.6786h-2.6786zm2.6786-2.6786h2.6786v2.6786h-2.6786zm2.6786 0v-2.6786h2.6786v2.6786z"/>
  <path d="m194.46 96.429h2.6786v2.6786h-2.6786zm2.6786-2.6786h2.6786v2.6786h-2.6786z"/>
  <path d="m202.5 91.071h2.6786v2.6786h-2.6786zm2.6786-2.6786h2.6786v2.6786h-2.6786zm2.6786 0v-2.6786h2.6786v2.6786z"/>
  <path d="m205.18 96.429h2.6786v2.6786h-2.6786zm2.6786-2.6786h2.6786v2.6786h-2.6786z"/>
  <path d="m213.21 91.071h2.6786v2.6786h-2.6786zm2.6786-2.6786h2.6786v2.6786h-2.6786zm2.6786 0v-2.6786h2.6786v2.6786z"/>
  <path d="m215.89 96.429h2.6786v2.6786h-2.6786zm2.6786-2.6786h2.6786v2.6786h-2.6786z"/>
 </g>
 <text x="200" y="120" fill="#6b7280" font-family="sans-serif" font-size="14" text-anchor="middle">Project Preview</text>
</svg>
